<svg xmlns="http://www.w3.org/2000/svg" version="1.1" xmlns:xlink="http://www.w3.org/1999/xlink" xmlns:svgjs="http://svgjs.com/svgjs" width="1440" height="900" preserveAspectRatio="none" viewBox="0 0 1440 900"><g mask="url(&quot;#SvgjsMask1126&quot;)" fill="none"><rect width="1440" height="900" x="0" y="0" fill="rgba(13, 125, 253, 1)"></rect><path d="M0,381.116C71.373,371.708,135.935,344.265,199.363,310.215C267.835,273.457,341.436,240.467,383.602,175.185C428.878,105.088,446.491,19.886,440.654,-63.357C434.549,-150.41,402.642,-233.681,350.047,-303.318C295.075,-376.103,226.216,-447.962,136.752,-465.734C49.168,-483.132,-33.642,-429.825,-116.261,-395.948C-190.605,-365.464,-262.621,-333.374,-320.914,-278.073C-383.849,-218.369,-461.957,-153.364,-463.403,-66.627C-464.85,20.214,-368.298,72.851,-328.045,149.813C-290.774,221.074,-301.992,321.298,-236.268,367.64C-170.465,414.037,-79.824,391.638,0,381.116" fill="#026ae0"></path><path d="M1440 1356.484C1531.578 1356.6100000000001 1636.809 1373.777 1705.7069999999999 1313.4479999999999 1774.367 1253.327 1747.185 1140.571 1782.622 1056.47 1816.53 975.998 1915.497 919.697 1908.286 832.671 1901.096 745.893 1811.96 692.107 1747.5729999999999 633.486 1689.952 581.025 1630.824 525.578 1554.38 510.459 1480.798 495.906 1408.34 526.546 1337.9569999999999 552.473 1271.826 576.8340000000001 1203.63 601.956 1158.672 656.2280000000001 1114.185 709.931 1109.174 782.426 1091.5720000000001 849.904 1071.568 926.591 1034.4180000000001 1000.817 1048.439 1078.82 1064.44 1167.835 1100.987 1260.4 1174.763 1312.716 1249.369 1365.621 1348.54 1356.358 1440 1356.484" fill="#3592fd"></path></g><defs><mask id="SvgjsMask1126"><rect width="1440" height="900" fill="#ffffff"></rect></mask></defs></svg>